<svg version="1.1" id="Layer_1" xmlns="http://www.w3.org/2000/svg" xmlns:xlink="http://www.w3.org/1999/xlink" x="0px" y="0px"
	 viewBox="0 0 264.6 152.6" style="enable-background:new 0 0 264.6 152.6;" xml:space="preserve">
<style type="text/css">
	.st0{fill:#212121;}
</style>
<g>
	<path class="st0" d="M87.3,137c-11,5.5-21.5,0.6-22.8,0c8.5-9,9.3-19.7,9.2-31c-0.3-28.2-0.1-56.3-0.1-84.5v-6.1h27.6
		c0.1,0.1,0.2,0.2,0.3,0.3l0.1,60.3c2.5,0,5,0,7.5,0c0-9,0-47.3,0-56.3c0-0.4,0-11.5,0-12H65.9c0,2.8,0,4.9,0,7.1
		c0,33.3,0.1,66.6,0,100c0,6.9-2.6,12.8-8,17.8c-5.7-5.9-8-12.5-7.9-20.2c0.2-7.3,0-14.5,0-22.3c-14,0-27.3-0.1-40.6,0.2
		c-1,0-2.7,2.6-2.7,4.1c-0.2,7.5-0.2,15,0.2,22.5c0.8,14.6,12.4,27.5,27,30.2c2.7,0.5,5.7,0.9,6.5-2.7c0.8-3.6-2.1-4.3-4.9-4.9
		c-10-2.1-17.3-7.9-19.7-17.7c-1.8-7.6-1.3-15.7-1.9-23.8h28.5c0,5.3,0,10.2,0,15.2c0.1,19.5,14.5,34.4,33.3,34.5
		c3.7,0,10-0.6,16.5-4.2c8-4.6,12.2-11.6,14.2-16.4c1-2.3-0.7-4.8-3.2-4.8h0c-1.7,0-3.3,1-4,2.5C97.6,128,94.1,133.6,87.3,137z"/>
</g>
<g>
	<path class="st0" d="M109.1,87.2H94.6c-1.1,0-1.9,0.9-1.9,1.9v3.4c0,1.1,0.9,1.9,1.9,1.9h12.9c1.1,0,1.9,0.9,1.9,1.9v2.2
		c0,1.1-0.9,1.9-1.9,1.9H94.6c-1.1,0-1.9,0.9-1.9,1.9v5.1c0,1.1,0.9,1.9,1.9,1.9h15.2c1.1,0,1.9,0.9,1.9,1.9v2.2
		c0,1.1-0.9,1.9-1.9,1.9H87.6c-1.1,0-1.9-0.9-1.9-1.9V83.1c0-1.1,0.9-1.9,1.9-1.9h21.5c1.1,0,1.9,0.9,1.9,1.9v2.2
		C111,86.4,110.1,87.2,109.1,87.2z"/>
	<path class="st0" d="M120.7,105c0.9,0,1.6,0.6,1.9,1.5c0.5,1.9,2.2,4.1,7.1,4.1c3.4,0,7.2-0.8,7.2-4.5c0-2.7-2.6-3.4-6.2-4.3
		l-3.7-0.9c-5.6-1.3-10.9-2.5-10.9-10.1c0-3.8,2.1-10.6,13.3-10.6c8.7,0,12.2,4.7,13.1,8.8c0.3,1.2-0.6,2.4-1.9,2.4h-3.2
		c-0.8,0-1.6-0.5-1.8-1.3c-0.5-1.7-2-3.9-6.8-3.9c-2.7,0-6,1-6,4.1c0,2.7,2.2,3.3,3.6,3.6l8.4,2.1c4.7,1.2,9,3.1,9,9.3
		c0,10.4-10.6,11.3-13.6,11.3c-10.5,0-13.7-5.1-14.5-9.2c-0.2-1.2,0.7-2.3,1.9-2.3H120.7z"/>
	<path class="st0" d="M152.2,105c0.9,0,1.6,0.6,1.9,1.5c0.5,1.9,2.2,4.1,7.1,4.1c3.4,0,7.2-0.8,7.2-4.5c0-2.7-2.6-3.4-6.2-4.3
		l-3.7-0.9c-5.6-1.3-10.9-2.5-10.9-10.1c0-3.8,2.1-10.6,13.2-10.6c8.7,0,12.2,4.7,13.1,8.7c0.3,1.2-0.6,2.4-1.9,2.4h-3.1
		c-0.9,0-1.6-0.5-1.9-1.4c-0.5-1.7-2-3.8-6.8-3.8c-2.7,0-6,1-6,4.1c0,2.7,2.2,3.3,3.6,3.6l8.4,2.1c4.7,1.2,9,3.1,9,9.3
		c0,10.4-10.6,11.3-13.6,11.3c-10.5,0-13.7-5-14.5-9.2c-0.2-1.2,0.7-2.4,1.9-2.4H152.2z"/>
	<path class="st0" d="M183.5,87H183c-1.7,0-3.1-1.4-3.1-3.1v0c0-1.7,1.4-3.1,3.1-3.1h0.5c1.7,0,3.1,1.4,3.1,3.1v0
		C186.6,85.6,185.2,87,183.5,87z"/>
	<path class="st0" d="M186.6,92v21.7c0,1.1-0.9,1.9-1.9,1.9h-2.9c-1.1,0-1.9-0.9-1.9-1.9V92c0-1.1,0.9-1.9,1.9-1.9h2.9
		C185.8,90.1,186.6,90.9,186.6,92z"/>
	<path class="st0" d="M216.5,92.4c-0.8,0-1.6-0.5-1.8-1.3c-0.8-2.1-2.4-4.6-7.2-4.6c-3.5,0-8.5,2.3-8.5,12c0,6.2,2.4,11.8,8.5,11.8
		c3.5,0,6.1-1.8,7.3-5.1c0.3-0.8,1-1.4,1.8-1.4h3.2c1.3,0,2.3,1.3,1.8,2.6c-2,6.1-6.7,10.2-14.3,10.2c-9.2,0-15.7-6.2-15.7-18.1
		c0-12,7-18.2,15.8-18.2c8.7,0,13,5,14.4,9.7c0.4,1.3-0.5,2.5-1.9,2.5H216.5z"/>
	<path class="st0" d="M230.8,115.6h-3.5c-1.3,0-2.3-1.3-1.8-2.6l10.9-30.6c0.3-0.8,1-1.3,1.8-1.3h5.6c0.8,0,1.6,0.5,1.8,1.3
		l10.8,30.6c0.4,1.3-0.5,2.6-1.8,2.6h-3.7c-0.8,0-1.6-0.6-1.8-1.4l-1.4-4.4c-0.3-0.8-1-1.4-1.8-1.4H236c-0.8,0-1.6,0.5-1.8,1.3
		l-1.5,4.5C232.4,115.1,231.6,115.6,230.8,115.6z M239.2,102.6h3.5c1.3,0,2.2-1.3,1.8-2.5L241,88.9h-0.1l-3.6,11.1
		C236.9,101.3,237.9,102.6,239.2,102.6z"/>
</g>
<path class="st0" d="M256,127.4c-25.4-0.1-50.7-0.1-76.1-0.2c0-1.8,0-3.5,0-5.3c25.4-0.1,50.7-0.2,76.1-0.2c1.5,0,2.8,1.1,2.9,2.5
	C259.2,125.8,257.8,127.4,256,127.4z"/>
<path class="st0" d="M135.2,76c-11.2,0-22.4,0-33.6,0c0-1.9,0-3.8,0-5.7c11.2,0,22.4,0,33.6,0c1.4,0.1,2.6,1.3,2.7,2.6
	C138,74.4,136.8,75.8,135.2,76z"/>
</svg>
